<?xml version="1.0"?>
<svg width="164" height="38" xmlns="http://www.w3.org/2000/svg" xmlns:svg="http://www.w3.org/2000/svg">
 <defs>
  <filter color-interpolation-filters="sRGB" filterUnits="userSpaceOnUse" height="38" id="filter0_dd_4155_249" width="38" x="0" y="0">
   <feFlood flood-opacity="0" result="BackgroundImageFix"/>
   <feColorMatrix in="SourceAlpha" result="hardAlpha" type="matrix" values="0 0 0 0 0 0 0 0 0 0 0 0 0 0 0 0 0 0 127 0"/>
   <feOffset dy="1"/>
   <feGaussianBlur stdDeviation="1"/>
   <feColorMatrix type="matrix" values="0 0 0 0 0.0627451 0 0 0 0 0.0941176 0 0 0 0 0.156863 0 0 0 0.06 0"/>
   <feBlend in2="BackgroundImageFix"/>
   <feColorMatrix in="SourceAlpha" result="hardAlpha" type="matrix" values="0 0 0 0 0 0 0 0 0 0 0 0 0 0 0 0 0 0 127 0"/>
   <feOffset dy="1"/>
   <feGaussianBlur stdDeviation="1.5"/>
   <feColorMatrix type="matrix" values="0 0 0 0 0.0627451 0 0 0 0 0.0941176 0 0 0 0 0.156863 0 0 0 0.1 0"/>
   <feBlend in2="effect1_dropShadow_4155_249"/>
   <feBlend in="SourceGraphic" in2="effect2_dropShadow_4155_249"/>
  </filter>
  <linearGradient id="paint0_linear_4155_249" x1="0.5" x2="0.5" y1="0" y2="1">
   <stop stop-color="white"/>
   <stop offset="1" stop-color="#D0D5DD"/>
  </linearGradient>
  <linearGradient id="paint1_linear_4155_249" x1="0.13" x2="0.87" y1="0.8" y2="-0.07">
   <stop stop-color="#0076C1"/>
   <stop offset="0.07" stop-color="#0B82C6"/>
   <stop offset="0.28" stop-color="#269ED3"/>
   <stop offset="0.45" stop-color="#36AFDA"/>
   <stop offset="0.59" stop-color="#3CB5DD"/>
  </linearGradient>
  <linearGradient id="paint2_linear_4155_249" x1="0.04" x2="0.85" y1="1.13" y2="-0.1">
   <stop stop-color="#00A482"/>
   <stop offset="1" stop-color="#79DD83"/>
  </linearGradient>
  <linearGradient id="paint3_linear_4155_249" x1="0.46" x2="0.82" y1="0.79" y2="0.17">
   <stop stop-color="#00A482"/>
   <stop offset="1" stop-color="#79DD83"/>
  </linearGradient>
 </defs>
 <g class="layer">
  <title>Layer 1</title>
  <g filter="url(#filter0_dd_4155_249)" id="svg_1">
   <rect fill="white" height="31.8" id="svg_2" rx="7.9" width="31.8" x="3.1" y="3.1"/>
   <rect fill="url(#paint0_linear_4155_249)" height="31.8" id="svg_3" rx="7.9" width="31.8" x="3.1" y="3.1"/>
   <rect height="31.8" id="svg_4" rx="7.9" stroke="#D0D5DD" stroke-width="0.2" width="31.8" x="3.1" y="3.1"/>
   <path d="m18.35,14.18c4.36,-1.73 9.12,-0.36 11.29,1.73c0.47,0.46 0.86,0.92 1.2,1.38c0.2,-1.08 0.22,-2.15 0.03,-3.18c-0.69,-3.78 -4.25,-5.92 -7.45,-4.82c-3.18,1.1 -4.42,3.24 -4.42,3.24c0,0 -1.24,-2.14 -4.42,-3.24c-3.2,-1.1 -6.76,1.04 -7.45,4.82c-0.5,2.78 0.45,5.83 2.48,8.52c0.43,0.14 0.87,0.25 1.35,0.31c2.84,0.38 3.86,-0.38 5.06,-0.89c0.79,-0.34 1.39,0.04 1.36,0.31c-0.04,0.42 -1.61,1.13 -1.27,1.28c1.33,0.59 2.96,0.59 4.2,-0.46c1.53,-1.31 2.1,-0.41 2.1,-0.41c0,0 -0.76,1.94 -3.05,2.9c-1.91,0.81 -3.92,1 -5.75,0.8c1.58,1.11 3.39,2.05 5.39,2.72c5.71,-1.91 9.93,-6 11.41,-10.28c-1,-0.99 -2.24,-1.61 -3.71,-1.83c-2.83,-0.43 -3.87,0.31 -5.08,0.79c-0.8,0.32 -1.39,-0.07 -1.36,-0.34c0.06,-0.42 1.64,-1.09 1.31,-1.25c-1.32,-0.62 -2.96,-0.65 -4.21,0.37c-1.56,1.28 -2.12,0.38 -2.12,0.38c0,0 0.8,-1.93 3.11,-2.85zm-1.08,5.33l1.1,0l0,-1.1l1.26,0l0,1.1l1.1,0l0,1.25l-1.1,0l0,1.1l-1.26,0l0,-1.1l-1.1,0l0,-1.25z" fill="url(#paint1_linear_4155_249)" id="svg_5"/>
   <path d="m17.27,19.51l1.1,0l0,-1.1l1.26,0l0,1.1l1.1,0l0,1.25l-1.09,0c1.62,0.82 4.6,2.04 8.18,2.59c1.18,-1.4 2.06,-2.91 2.59,-4.44c-1,-0.99 -2.24,-1.61 -3.71,-1.83c-2.83,-0.43 -3.87,0.31 -5.08,0.79c-0.8,0.32 -1.39,-0.07 -1.36,-0.34c0.06,-0.42 1.64,-1.09 1.31,-1.25c-1.32,-0.62 -2.96,-0.65 -4.21,0.37c-1.56,1.28 -2.12,0.38 -2.12,0.38c0,0 0.8,-1.93 3.11,-2.85c4.36,-1.73 9.12,-0.36 11.29,1.73c0.47,0.46 0.86,0.92 1.2,1.37c0.2,-1.07 0.21,-2.14 0.03,-3.17c-0.69,-3.78 -4.25,-5.92 -7.45,-4.82c-3.18,1.1 -4.42,3.24 -4.42,3.24c0,0 -1.24,-2.14 -4.42,-3.24c-1.83,-0.63 -3.77,-0.2 -5.23,0.99c0.68,1.46 1.49,2.84 3.78,5.6c1.86,2.24 4.14,3.63 4.14,3.63z" fill="url(#paint2_linear_4155_249)" id="svg_6"/>
   <path d="m27.28,10.65c-3.01,-1.51 -6.11,0.84 -7.09,2.08c1.69,-0.36 3.18,-0.54 5.06,-0.15c2.78,0.59 3.82,1.59 5.06,3.07c-0.22,-2.74 -1.96,-4.46 -3.03,-5z" fill="url(#paint3_linear_4155_249)" id="svg_7" opacity="0.31"/>
  </g>
  <text fill="#ffffff" font-family="Helvetica" font-size="24" font-weight="bold" id="svg_9" stroke-width="0" text-anchor="middle" textLength="0" transform="matrix(0.742173 0 0 0.84069 28.7362 4.39675)" x="82.05" xml:space="preserve" y="25.66">HealthSync</text>
 </g>
</svg>